<svg width="20" height="14" viewBox="0 0 20 14" fill="none" xmlns="http://www.w3.org/2000/svg">
<g id="bubowl 1" clip-path="url(#clip0_379_2319)">
<g id="Group">
<g id="Group_2">
<path id="Vector" d="M2.06118e-08 6.99958C2.22728e-05 8.61894 0.565364 10.1882 1.5997 11.44C2.63403 12.6917 4.07336 13.5486 5.67244 13.8645C7.27152 14.1804 8.93141 13.9358 10.3693 13.1724C11.8072 12.409 12.9341 11.1741 13.558 9.67799C14.1819 8.18188 14.2642 6.5172 13.7909 4.96757C13.3176 3.41794 12.318 2.07925 10.9623 1.17959C9.6067 0.279937 7.97893 -0.125019 6.35637 0.0337223C4.73382 0.192464 3.21688 0.905082 2.06403 2.05016C1.40959 2.70009 0.890472 3.47171 0.536323 4.32094C0.182173 5.17017 -7.07637e-05 6.08038 2.06118e-08 6.99958Z" fill="#76341F"/>
<path id="Vector_2" d="M1.03255 4.50456C1.67388 3.86757 4.32259 3.479 5.29528 3.479C6.26797 3.479 8.91775 3.86969 9.55801 4.50456C10.1983 5.13943 10.5906 7.77232 10.5906 8.73842C10.5906 9.70453 10.1972 12.3364 9.55801 12.9723C8.91882 13.6082 6.26797 13.9979 5.29528 13.9979C4.32259 13.9979 1.67281 13.6072 1.03255 12.9734C0.392283 12.3396 0 9.70559 0 8.73842C0 7.77126 0.393352 5.1373 1.03255 4.50456Z" fill="#76341F"/>
<path id="Vector_3" d="M0 6.96045H7.08674V13.9992H0V6.96045Z" fill="#76341F"/>
<path id="Vector_4" d="M5.90527 6.99958C5.9053 8.61894 6.47064 10.1882 7.50497 11.44C8.5393 12.6917 9.97864 13.5486 11.5777 13.8645C13.1768 14.1804 14.8367 13.9358 16.2746 13.1724C17.7124 12.409 18.8393 11.1741 19.4633 9.67799C20.0872 8.18188 20.1695 6.5172 19.6962 4.96757C19.2229 3.41794 18.2232 2.07925 16.8676 1.17959C15.512 0.279937 13.8842 -0.125019 12.2617 0.0337223C10.6391 0.192464 9.12216 0.905082 7.9693 2.05016C7.31486 2.70009 6.79574 3.47171 6.44159 4.32094C6.08744 5.17017 5.9052 6.08038 5.90527 6.99958Z" fill="#FF511A"/>
<path id="Vector_5" d="M6.93782 4.50456C7.57916 3.86757 10.2279 3.479 11.2006 3.479C12.1732 3.479 14.823 3.86969 15.4633 4.50456C16.1036 5.13943 16.4958 7.77232 16.4958 8.73842C16.4958 9.70453 16.1025 12.3364 15.4633 12.9723C14.8241 13.6082 12.1732 13.9979 11.2006 13.9979C10.2279 13.9979 7.57809 13.6072 6.93782 12.9723C6.29756 12.3374 5.90527 9.70559 5.90527 8.73842C5.90527 7.77126 6.29863 5.1373 6.93782 4.50456Z" fill="#FF511A"/>
<path id="Vector_6" d="M5.90527 6.96045H12.992V13.9992H5.90527V6.96045Z" fill="#FF511A"/>
</g>
</g>
</g>
<defs>
<clipPath id="clip0_379_2319">
<rect width="20" height="14" fill="white"/>
</clipPath>
</defs>
</svg>
