<svg width="15" height="15" viewBox="0 0 15 15" fill="none" xmlns="http://www.w3.org/2000/svg">
<g id="Check">
<path id="Vector" d="M7.5 0C6.01664 0 4.56659 0.439867 3.33323 1.26398C2.09986 2.08809 1.13856 3.25943 0.570907 4.62987C0.00324964 6.00032 -0.145275 7.50832 0.144114 8.96318C0.433503 10.418 1.14781 11.7544 2.1967 12.8033C3.2456 13.8522 4.58197 14.5665 6.03683 14.8559C7.49168 15.1453 8.99968 14.9968 10.3701 14.4291C11.7406 13.8614 12.9119 12.9001 13.736 11.6668C14.5601 10.4334 15 8.98336 15 7.5C14.9977 5.51159 14.2068 3.60528 12.8007 2.19926C11.3947 0.793236 9.48841 0.00231576 7.5 0V0ZM11.8294 5.125L7.55125 10.9306C7.50074 10.9976 7.43739 11.0539 7.3649 11.0962C7.2924 11.1384 7.21222 11.1658 7.12902 11.1768C7.04582 11.1877 6.96127 11.182 6.88032 11.1599C6.79936 11.1378 6.72362 11.0998 6.6575 11.0481L3.6025 8.60562C3.5384 8.55433 3.48503 8.4909 3.44544 8.41898C3.40585 8.34706 3.38081 8.26804 3.37176 8.18644C3.35347 8.02164 3.4014 7.85633 3.505 7.72687C3.6086 7.59741 3.75939 7.51441 3.92418 7.49613C4.08898 7.47784 4.25429 7.52577 4.38375 7.62937L6.93125 9.6675L10.8231 4.38562C10.87 4.31532 10.9306 4.25524 11.0013 4.20902C11.0721 4.1628 11.1514 4.1314 11.2346 4.11672C11.3178 4.10204 11.4031 4.10438 11.4854 4.12361C11.5677 4.14283 11.6452 4.17853 11.7133 4.22856C11.7814 4.27859 11.8386 4.3419 11.8815 4.41467C11.9245 4.48745 11.9522 4.56817 11.963 4.65196C11.9739 4.73575 11.9676 4.82087 11.9447 4.90217C11.9217 4.98348 11.8825 5.05928 11.8294 5.125Z" fill="white" fill-opacity="0.8"/>
</g>
</svg>
