<svg width="34" height="33" viewBox="0 0 34 33" fill="none" xmlns="http://www.w3.org/2000/svg">
<g id="comente-cotacao 1" clip-path="url(#clip0_359_2247)">
<path id="Vector" d="M17 0.5C7.62592 0.5 0 7.67733 0 16.5C0 25.3227 7.62592 32.5 17 32.5H34V16.5C34 7.67733 26.3741 0.5 17 0.5ZM15.5833 17.8333C15.5833 20.7747 13.0418 23.1667 9.91667 23.1667V20.5C11.4792 20.5 12.75 19.304 12.75 17.8333H8.5V13.8333C8.5 12.3627 9.77075 11.1667 11.3333 11.1667H15.5833V17.8333ZM25.5 17.8333C25.5 20.7747 22.9585 23.1667 19.8333 23.1667V20.5C21.3959 20.5 22.6667 19.304 22.6667 17.8333H18.4167V13.8333C18.4167 12.3627 19.6874 11.1667 21.25 11.1667H25.5V17.8333Z" fill="#0E4061"/>
</g>
<defs>
<clipPath id="clip0_359_2247">
<rect width="34" height="32" fill="white" transform="translate(0 0.5)"/>
</clipPath>
</defs>
</svg>
