<svg width="21" height="20" viewBox="0 0 21 20" fill="none" xmlns="http://www.w3.org/2000/svg">
<g id="headset 1" clip-path="url(#clip0_394_3340)">
<path id="Vector" d="M18.0009 10.3482V9.1665C18.0009 7.17738 17.2107 5.26973 15.8042 3.8632C14.3976 2.45668 12.49 1.6665 10.5009 1.6665C8.51174 1.6665 6.60408 2.45668 5.19756 3.8632C3.79104 5.26973 3.00086 7.17738 3.00086 9.1665V10.3482C2.12382 10.7312 1.40538 11.4046 0.966313 12.255C0.527245 13.1054 0.394313 14.081 0.589859 15.0178C0.785406 15.9547 1.29751 16.7957 2.0401 17.3995C2.78268 18.0032 3.71047 18.3329 4.66753 18.3332H6.33419V9.99984H4.66753V9.1665C4.66753 7.61941 5.28211 6.13568 6.37607 5.04171C7.47003 3.94775 8.95376 3.33317 10.5009 3.33317C12.048 3.33317 13.5317 3.94775 14.6257 5.04171C15.7196 6.13568 16.3342 7.61941 16.3342 9.1665V9.99984H14.6675V16.6665H11.3342V18.3332H16.3342C17.2912 18.3329 18.219 18.0032 18.9616 17.3995C19.7042 16.7957 20.2163 15.9547 20.4119 15.0178C20.6074 14.081 20.4745 13.1054 20.0354 12.255C19.5963 11.4046 18.8779 10.7312 18.0009 10.3482Z" fill="white"/>
</g>
<defs>
<clipPath id="clip0_394_3340">
<rect width="20" height="20" fill="white" transform="translate(0.5)"/>
</clipPath>
</defs>
</svg>
