<svg width="40" height="40" viewBox="0 0 40 40" fill="none" xmlns="http://www.w3.org/2000/svg">
<g id="Loc_click">
<circle id="Ellipse 4" cx="20" cy="20" r="20" fill="#0E4061"/>
<path id="Vector" d="M20 11C16.6829 11 14 13.817 14 17.3C14 22.025 20 29 20 29C20 29 26 22.025 26 17.3C26 13.817 23.3171 11 20 11ZM20 19.55C19.4317 19.55 18.8866 19.3129 18.4848 18.891C18.0829 18.469 17.8571 17.8967 17.8571 17.3C17.8571 16.7033 18.0829 16.131 18.4848 15.709C18.8866 15.2871 19.4317 15.05 20 15.05C20.5683 15.05 21.1134 15.2871 21.5152 15.709C21.9171 16.131 22.1429 16.7033 22.1429 17.3C22.1429 17.8967 21.9171 18.469 21.5152 18.891C21.1134 19.3129 20.5683 19.55 20 19.55Z" fill="white"/>
</g>
</svg>
