<svg width="29" height="29" viewBox="0 0 29 29" fill="none" xmlns="http://www.w3.org/2000/svg">
<g id="Icon">
<circle id="Ellipse 4" cx="14.5" cy="14.5" r="14.5" fill="white"/>
<path id="Vector" d="M14.5004 7.9751C12.0955 7.9751 10.1504 10.0174 10.1504 12.5426C10.1504 15.9682 14.5004 21.0251 14.5004 21.0251C14.5004 21.0251 18.8504 15.9682 18.8504 12.5426C18.8504 10.0174 16.9053 7.9751 14.5004 7.9751ZM14.5004 14.1738C14.0884 14.1738 13.6932 14.002 13.4018 13.6961C13.1105 13.3901 12.9468 12.9752 12.9468 12.5426C12.9468 12.11 13.1105 11.695 13.4018 11.3891C13.6932 11.0832 14.0884 10.9113 14.5004 10.9113C14.9124 10.9113 15.3076 11.0832 15.5989 11.3891C15.8903 11.695 16.054 12.11 16.054 12.5426C16.054 12.9752 15.8903 13.3901 15.5989 13.6961C15.3076 14.002 14.9124 14.1738 14.5004 14.1738Z" fill="#0E4061"/>
</g>
</svg>
