<svg width="29" height="29" viewBox="0 0 29 29" fill="none" xmlns="http://www.w3.org/2000/svg">
<g id="Icon">
<circle id="Ellipse 4" cx="14.5" cy="14.5" r="14.5" fill="white"/>
<path id="Vector" d="M20.4151 16.9957C19.5069 16.9957 18.6281 16.848 17.8085 16.5822C17.6801 16.5387 17.542 16.5322 17.4101 16.5636C17.2782 16.5949 17.1578 16.6628 17.0627 16.7594L15.9033 18.2141C13.8136 17.2172 11.8568 15.3343 10.8156 13.1707L12.2555 11.9449C12.4549 11.7381 12.514 11.4501 12.4327 11.1917C12.1595 10.372 12.0192 9.49331 12.0192 8.58505C12.0192 8.1863 11.6869 7.854 11.2882 7.854H8.73322C8.33447 7.854 7.85449 8.03123 7.85449 8.58505C7.85449 15.445 13.5625 21.1457 20.4151 21.1457C20.9394 21.1457 21.1462 20.6805 21.1462 20.2743V17.7268C21.1462 17.328 20.8139 16.9957 20.4151 16.9957Z" fill="#0E4061"/>
</g>
</svg>
