<svg width="40" height="40" viewBox="0 0 40 40" fill="none" xmlns="http://www.w3.org/2000/svg">
<g id="Phone_click">
<circle id="Ellipse 4" cx="20" cy="20" r="20" fill="#0E4061"/>
<path id="Vector" d="M28.159 23.4428C26.9062 23.4428 25.6942 23.2391 24.5636 22.8724C24.3865 22.8123 24.1961 22.8034 24.0141 22.8467C23.8322 22.8899 23.6661 22.9835 23.5349 23.1168L21.9358 25.1233C19.0534 23.7483 16.3544 21.1511 14.9182 18.1668L16.9044 16.4761C17.1794 16.1909 17.2608 15.7937 17.1488 15.4372C16.7719 14.3066 16.5784 13.0946 16.5784 11.8418C16.5784 11.2918 16.1201 10.8335 15.5701 10.8335H12.046C11.496 10.8335 10.834 11.0779 10.834 11.8418C10.834 21.3039 18.7071 29.1668 28.159 29.1668C28.8821 29.1668 29.1673 28.5252 29.1673 27.965V24.4511C29.1673 23.9011 28.709 23.4428 28.159 23.4428Z" fill="white"/>
</g>
</svg>
