<svg width="19" height="19" viewBox="0 0 19 19" fill="none" xmlns="http://www.w3.org/2000/svg">
<path d="M18.6879 6.70562C18.6053 6.48581 18.4571 6.29619 18.263 6.16207C18.069 6.02796 17.8382 5.95573 17.6016 5.95503H12.8991C12.8191 5.95509 12.741 5.93051 12.6757 5.88468C12.6103 5.83886 12.561 5.77405 12.5344 5.69922L10.8464 0.955974C10.7637 0.736743 10.6154 0.547778 10.4215 0.41437C10.2275 0.280961 9.99703 0.209473 9.76094 0.209473C9.52485 0.209473 9.2944 0.280961 9.10042 0.41437C8.90643 0.547778 8.75818 0.736743 8.6755 0.955974L8.67163 0.968229L6.98746 5.69922C6.96093 5.77393 6.9117 5.83865 6.84653 5.88446C6.78136 5.93028 6.70347 5.95493 6.62358 5.95503H1.91947C1.68139 5.95485 1.44902 6.02739 1.25398 6.16276C1.05894 6.29813 0.910694 6.48978 0.829403 6.71163C0.748113 6.93349 0.737723 7.17478 0.799648 7.4027C0.861574 7.63061 0.992807 7.83408 1.1755 7.98544L5.18044 11.2788C5.24035 11.3281 5.28384 11.3942 5.30521 11.4684C5.32657 11.5426 5.32483 11.6215 5.30019 11.6947L3.61756 16.6968C3.5398 16.9281 3.53826 17.1779 3.61317 17.4101C3.68809 17.6423 3.83556 17.8449 4.03427 17.9885C4.23298 18.1321 4.47262 18.2093 4.71853 18.209C4.96443 18.2087 5.20386 18.1308 5.40217 17.9866L9.53226 14.9843C9.59849 14.9362 9.67846 14.9102 9.76056 14.9102C9.84266 14.9102 9.92262 14.9362 9.98885 14.9843L14.1174 17.9859C14.3156 18.1305 14.5552 18.2088 14.8013 18.2095C15.0474 18.2101 15.2874 18.1331 15.4863 17.9894C15.6853 17.8458 15.833 17.6431 15.9081 17.4107C15.9831 17.1783 15.9815 16.9283 15.9036 16.6968L14.2209 11.6917C14.1963 11.6184 14.1945 11.5396 14.2159 11.4654C14.2373 11.3911 14.2808 11.3251 14.3407 11.2758L18.3533 7.97779C18.5337 7.82514 18.6625 7.62132 18.7223 7.39383C18.7821 7.16633 18.7701 6.92613 18.6879 6.70562Z" fill="#F6AF22"/>
</svg>
