<svg width="23" height="23" viewBox="0 0 23 23" fill="none" xmlns="http://www.w3.org/2000/svg">
<g id="Icon">
<path id="Vector" d="M11.859 6.45068C10.1304 6.45068 8.73242 7.9186 8.73242 9.73357C8.73242 12.1957 11.859 15.8304 11.859 15.8304C11.859 15.8304 14.9855 12.1957 14.9855 9.73357C14.9855 7.9186 13.5875 6.45068 11.859 6.45068ZM11.859 10.906C11.5628 10.906 11.2788 10.7825 11.0694 10.5626C10.86 10.3428 10.7424 10.0445 10.7424 9.73357C10.7424 9.42262 10.86 9.1244 11.0694 8.90452C11.2788 8.68464 11.5628 8.56111 11.859 8.56111C12.1551 8.56111 12.4392 8.68464 12.6486 8.90452C12.858 9.1244 12.9756 9.42262 12.9756 9.73357C12.9756 10.0445 12.858 10.3428 12.6486 10.5626C12.4392 10.7825 12.1551 10.906 11.859 10.906Z" fill="#0E4061"/>
<g id="Vector_2">
<path d="M11.5 0C9.22552 0 7.00211 0.674463 5.11095 1.9381C3.21978 3.20174 1.7458 4.99779 0.87539 7.09914C0.00498279 9.20049 -0.222756 11.5128 0.220974 13.7435C0.664704 15.9743 1.75997 18.0234 3.36828 19.6317C4.97658 21.24 7.02568 22.3353 9.25646 22.779C11.4872 23.2228 13.7995 22.995 15.9009 22.1246C18.0022 21.2542 19.7983 19.7802 21.0619 17.8891C22.3255 15.9979 23 13.7745 23 11.5C22.9964 8.4511 21.7837 5.52809 19.6278 3.37219C17.4719 1.21629 14.5489 0.00355084 11.5 0ZM11.5 21.0833C9.6046 21.0833 7.75176 20.5213 6.17579 19.4682C4.59982 18.4152 3.3715 16.9185 2.64616 15.1674C1.92082 13.4163 1.73104 11.4894 2.10081 9.63038C2.47059 7.7714 3.38331 6.06381 4.72356 4.72356C6.06382 3.38331 7.7714 2.47058 9.63039 2.10081C11.4894 1.73103 13.4163 1.92081 15.1674 2.64615C16.9185 3.37149 18.4152 4.59981 19.4683 6.17578C20.5213 7.75175 21.0833 9.60459 21.0833 11.5C21.0805 14.0408 20.07 16.4767 18.2734 18.2734C16.4767 20.07 14.0408 21.0805 11.5 21.0833Z" fill="white"/>
<path d="M16.4201 15.1512L11.9792 11.0793V6.22917C11.9792 5.975 11.8782 5.73124 11.6985 5.55152C11.5188 5.3718 11.275 5.27083 11.0208 5.27083C10.7667 5.27083 10.5229 5.3718 10.3432 5.55152C10.1635 5.73124 10.0625 5.975 10.0625 6.22917V11.5C10.0624 11.633 10.0899 11.7645 10.1433 11.8863C10.1968 12.0081 10.275 12.1174 10.373 12.2072L15.1254 16.5629C15.3138 16.7323 15.5612 16.8211 15.8144 16.8102C16.0676 16.7993 16.3064 16.6895 16.4795 16.5044C16.6509 16.317 16.7409 16.0693 16.7298 15.8155C16.7187 15.5618 16.6073 15.3229 16.4201 15.1512Z" fill="white"/>
</g>
</g>
</svg>
