<svg width="18" height="18" viewBox="0 0 18 18" fill="none" xmlns="http://www.w3.org/2000/svg">
<g id="whatsapp (1) 1" clip-path="url(#clip0_832_295)">
<g id="WA_Logo">
<g id="Group">
<path id="Vector" fill-rule="evenodd" clip-rule="evenodd" d="M14.9953 2.97067C13.4043 1.37833 11.2893 0.500708 9.03606 0.5C4.39293 0.5 0.613974 4.27825 0.611849 8.9235C0.611141 10.4082 0.999307 11.8574 1.73668 13.1352L0.541016 17.5L5.00635 16.3284C6.23672 16.9999 7.62222 17.3534 9.03181 17.3541H9.03535C13.6778 17.3541 17.4574 13.5751 17.4596 8.92987C17.461 6.6795 16.5855 4.56229 14.9953 2.97067ZM9.03606 15.931H9.03322C7.77664 15.931 6.54485 15.5932 5.4696 14.955L5.21389 14.8034L2.56402 15.4982L3.27164 12.9142L3.10518 12.6493C2.40393 11.5344 2.03418 10.246 2.03489 8.9235C2.03631 5.06308 5.17777 1.92233 9.0396 1.92233C10.9096 1.92233 12.6677 2.65192 13.9894 3.97508C15.3112 5.29896 16.0386 7.05775 16.0379 8.92846C16.0358 12.7903 12.8951 15.931 9.03606 15.931ZM12.8766 10.6873C12.6663 10.5817 11.6314 10.0724 11.438 10.0023C11.2453 9.93217 11.1051 9.89675 10.9641 10.1071C10.8232 10.3175 10.4208 10.7921 10.2976 10.933C10.1751 11.0733 10.0518 11.091 9.84143 10.9855C9.63106 10.8799 8.95247 10.6582 8.14852 9.94067C7.52306 9.3825 7.10018 8.69329 6.97764 8.48221C6.8551 8.27112 6.96489 8.15779 7.06972 8.05296C7.16464 7.95875 7.2801 7.80717 7.38564 7.68392C7.49189 7.56208 7.5266 7.47425 7.59743 7.33329C7.66756 7.19304 7.63285 7.06979 7.57972 6.96425C7.5266 6.85942 7.10585 5.82312 6.93089 5.40167C6.76018 4.99083 6.58664 5.04679 6.45702 5.04042C6.33447 5.03404 6.19422 5.03333 6.05327 5.03333C5.91302 5.03333 5.68493 5.08575 5.49227 5.29683C5.2996 5.50792 4.7556 6.01721 4.7556 7.05279C4.7556 8.08908 5.50997 9.08996 5.61481 9.23021C5.71964 9.37046 7.09876 11.4969 9.21031 12.4085C9.71251 12.6252 10.1049 12.7549 10.4102 12.8519C10.9146 13.012 11.3736 12.9893 11.7362 12.9355C12.1407 12.8753 12.9815 12.4262 13.1571 11.9346C13.3328 11.443 13.3328 11.0209 13.2797 10.9337C13.2273 10.8452 13.087 10.7928 12.8766 10.6873Z" fill="white"/>
</g>
</g>
</g>
<defs>
<clipPath id="clip0_832_295">
<rect width="17" height="17" fill="white" transform="translate(0.5 0.5)"/>
</clipPath>
</defs>
</svg>
