<svg width="23" height="23" viewBox="0 0 23 23" fill="none" xmlns="http://www.w3.org/2000/svg">
<g id="WA_Logo">
<g id="Group">
<path id="Vector" fill-rule="evenodd" clip-rule="evenodd" d="M19.5557 3.34267C17.4033 1.18833 14.5417 0.000958333 11.4933 0C5.21142 0 0.0987083 5.11175 0.0958333 11.3965C0.094875 13.4052 0.620042 15.3659 1.61767 17.0947L0 23L6.04133 21.4149C7.70596 22.3234 9.58046 22.8016 11.4875 22.8026H11.4923C17.7732 22.8026 22.8869 17.6899 22.8898 11.4051C22.8917 8.3605 21.7072 5.49604 19.5557 3.34267ZM11.4933 20.8773H11.4895C9.78937 20.8773 8.12283 20.4202 6.66808 19.5567L6.32212 19.3516L2.737 20.2917L3.69438 16.7957L3.46917 16.4373C2.52042 14.9289 2.02017 13.1857 2.02112 11.3965C2.02304 6.17358 6.27325 1.92433 11.4981 1.92433C14.0281 1.92433 16.4067 2.91142 18.1949 4.70158C19.9832 6.49271 20.9674 8.87225 20.9664 11.4032C20.9635 16.628 16.7143 20.8773 11.4933 20.8773ZM16.6894 13.7828C16.4048 13.64 15.0046 12.9509 14.743 12.856C14.4823 12.7612 14.2926 12.7132 14.1019 12.9979C13.9112 13.2825 13.3668 13.9246 13.2001 14.1153C13.0343 14.305 12.8675 14.329 12.5829 14.1862C12.2983 14.0434 11.3802 13.7435 10.2925 12.7727C9.44629 12.0175 8.87417 11.085 8.70837 10.7995C8.54258 10.5139 8.69112 10.3605 8.83296 10.2187C8.96138 10.0912 9.11758 9.88617 9.26038 9.71942C9.40413 9.55458 9.45108 9.43575 9.54692 9.24504C9.64179 9.05529 9.59483 8.88854 9.52296 8.74575C9.45108 8.60392 8.88183 7.20187 8.64512 6.63167C8.41417 6.07583 8.17937 6.15154 8.004 6.14292C7.83821 6.13429 7.64846 6.13333 7.45775 6.13333C7.268 6.13333 6.95942 6.20425 6.69875 6.48983C6.43808 6.77542 5.70208 7.46446 5.70208 8.86554C5.70208 10.2676 6.72271 11.6217 6.86454 11.8115C7.00637 12.0012 8.87225 14.8781 11.729 16.1115C12.4085 16.4048 12.9394 16.5801 13.3525 16.7114C14.0348 16.928 14.6558 16.8973 15.1465 16.8245C15.6937 16.743 16.8312 16.1355 17.0689 15.4704C17.3065 14.8053 17.3065 14.2341 17.2347 14.1162C17.1638 13.9965 16.974 13.9255 16.6894 13.7828Z" fill="white"/>
</g>
</g>
</svg>
